# xmcd
#
# Track frame offsets: 
#        182
#        22385
#        45010
#        62860
#        80160
#        100547
#        122897
#        147797
#        166147
#
# Disc length: 2604 seconds
#
# Revision: 2
# Processed by: cddbd v1.5.2PL0 Copyright (c) Steve Scherf et al.
# Submitted via: ExactAudioCopy v0.95b4
#
DISCID=720a2a09
DTITLE=Albert Collins, Robert Cray and Johnny Copeland - Showdown!
DYEAR=1900
DGENRE=Blues
TTITLE0=T-Bone Shuffle
TTITLE1=The Moon is Full
TTITLE2=Lion's Den
TTITLE3=She's Into Something
TTITLE4=Bring Your Fine Self Home
TTITLE5=Black Cat Bone
TTITLE6=The Dream
TTITLE7=Albert's Alley
TTITLE8=Blackjack
EXTD=
EXTT0=
EXTT1=
EXTT2=
EXTT3=
EXTT4=
EXTT5=
EXTT6=
EXTT7=
EXTT8=
PLAYORDER=
